<svg xmlns="http://www.w3.org/2000/svg">
  <g style="transform-origin: 140.5px 125px; transform: scale(0.375);">
    <g transform="translate(140.5,125)">
      <g>
        <g class="path" style="animation: 1s linear -0.612857s infinite normal forwards running css3toolsmaker;">
          <path
            d="M24-16.72L24-16.72L24-16.72Q22.32-18.40 22.32-20.80L22.32-20.80L22.32-20.80Q22.32-23.20 24-24.92L24-24.92L24-24.92Q25.68-26.64 28.08-26.64L28.08-26.64L28.08-26.64Q28.80-26.64 29.92-26.32L29.92-26.32L29.92-26.32Q28.40-29.12 24.24-29.12L24.24-29.12L24.24-29.12Q20.08-29.12 16.88-23.84L16.88-23.84L16.88-23.84Q13.68-18.56 13.68-8.16L13.68-8.16L13.68-8.16Q13.68-4.56 15.32-2.84L15.32-2.84L15.32-2.84Q16.96-1.12 19.44-1.12L19.44-1.12L19.44-1.12Q21.92-1.12 23.96-2.08L23.96-2.08L23.96-2.08Q26-3.04 27.20-4.36L27.20-4.36L27.20-4.36Q28.40-5.68 29.28-7.12L29.28-7.12L29.28-7.12Q30.88-9.76 30.88-10.48L30.88-10.48L32.32-9.84L32.32-9.84Q32.08-8.56 30.88-6.44L30.88-6.44L30.88-6.44Q29.68-4.32 28.24-2.96L28.24-2.96L28.24-2.96Q26.80-1.60 24-0.44L24-0.44L24-0.44Q21.20 0.72 17.76 0.72L17.76 0.72L17.76 0.72Q11.28 0.72 7.96-2.36L7.96-2.36L7.96-2.36Q4.64-5.44 4.64-10.80L4.64-10.80L4.64-10.80Q4.64-20.32 9.40-25.72L9.40-25.72L9.40-25.72Q14.16-31.12 22.32-31.12L22.32-31.12L22.32-31.12Q27.84-31.12 30.80-28.32L30.80-28.32L30.80-28.32Q33.76-25.52 33.76-20.96L33.76-20.96L33.76-20.96Q33.76-18.08 32.04-16.56L32.04-16.56L32.04-16.56Q30.32-15.04 28-15.04L28-15.04L28-15.04Q25.68-15.04 24-16.72"
            fill="#1b0629" stroke="none" stroke-width="none"
            transform="translate(-250.27996826171875,20.294170401436933)" style="fill: rgb(27, 6, 41);" />
        </g>
        <g class="path" style="animation: 1s linear -0.565714s infinite normal forwards running css3toolsmaker;">
          <path
            d="M44.64-1.36L44.64-1.36L44.64-1.36Q52.56-1.36 52.56-13.04L52.56-13.04L52.56-13.04Q52.56-15.92 51.72-19.84L51.72-19.84L51.72-19.84Q50.88-23.76 50.72-24.72L50.72-24.72L50.72-24.72Q45.84-19.68 39.76-18.64L39.76-18.64L39.76-20.56L39.76-20.56Q45.52-21.84 50.56-27.12L50.56-27.12L50.56-27.44L50.56-27.44Q50.56-29.36 51.12-31.20L51.12-31.20L51.12-31.20Q51.68-33.04 52.24-33.92L52.24-33.92L52.80-34.80L54.72-34.80L54.72-34.80Q54.72-31.28 55.84-28.36L55.84-28.36L55.84-28.36Q56.96-25.44 58.32-23.64L58.32-23.64L58.32-23.64Q59.68-21.84 60.80-18.92L60.80-18.92L60.80-18.92Q61.92-16 61.92-12.48L61.92-12.48L61.92-12.48Q61.92-6.80 57.64-3.04L57.64-3.04L57.64-3.04Q53.36 0.72 47.36 0.72L47.36 0.72L47.36 0.72Q41.36 0.72 38.28-2L38.28-2L38.28-2Q35.20-4.72 35.20-8.28L35.20-8.28L35.20-8.28Q35.20-11.84 36.96-13.40L36.96-13.40L36.96-13.40Q38.72-14.96 41.12-14.96L41.12-14.96L41.12-14.96Q43.52-14.96 45.08-13.40L45.08-13.40L45.08-13.40Q46.64-11.84 46.64-9.40L46.64-9.40L46.64-9.40Q46.64-6.96 45.12-5.28L45.12-5.28L45.12-5.28Q43.60-3.60 41.20-3.60L41.20-3.60L41.20-3.60Q40.16-3.60 39.04-3.92L39.04-3.92L39.04-3.92Q40.80-1.36 44.64-1.36"
            fill="#1b0629" stroke="none" stroke-width="none"
            transform="translate(-250.27996826171875,20.294170401436933)" style="fill: rgb(220, 147, 248);" />
        </g>
        <g class="path" style="animation: 1s linear -0.518571s infinite normal forwards running css3toolsmaker;">
          <path
            d="M74.08-1.36L74.08-1.36L74.08-1.36Q82-1.36 82-13.04L82-13.04L82-13.04Q82-15.92 81.16-19.84L81.16-19.84L81.16-19.84Q80.32-23.76 80.16-24.72L80.16-24.72L80.16-24.72Q75.28-19.68 69.20-18.64L69.20-18.64L69.20-20.56L69.20-20.56Q74.96-21.84 80-27.12L80-27.12L80-27.44L80-27.44Q80-29.36 80.56-31.20L80.56-31.20L80.56-31.20Q81.12-33.04 81.68-33.92L81.68-33.92L82.24-34.80L84.16-34.80L84.16-34.80Q84.16-31.28 85.28-28.36L85.28-28.36L85.28-28.36Q86.40-25.44 87.76-23.64L87.76-23.64L87.76-23.64Q89.12-21.84 90.24-18.92L90.24-18.92L90.24-18.92Q91.36-16 91.36-12.48L91.36-12.48L91.36-12.48Q91.36-6.80 87.08-3.04L87.08-3.04L87.08-3.04Q82.80 0.72 76.80 0.72L76.80 0.72L76.80 0.72Q70.80 0.72 67.72-2L67.72-2L67.72-2Q64.64-4.72 64.64-8.28L64.64-8.28L64.64-8.28Q64.64-11.84 66.40-13.40L66.40-13.40L66.40-13.40Q68.16-14.96 70.56-14.96L70.56-14.96L70.56-14.96Q72.96-14.96 74.52-13.40L74.52-13.40L74.52-13.40Q76.08-11.84 76.08-9.40L76.08-9.40L76.08-9.40Q76.08-6.96 74.56-5.28L74.56-5.28L74.56-5.28Q73.04-3.60 70.64-3.60L70.64-3.60L70.64-3.60Q69.60-3.60 68.48-3.92L68.48-3.92L68.48-3.92Q70.24-1.36 74.08-1.36"
            fill="#1b0629" stroke="none" stroke-width="none"
            transform="translate(-250.27996826171875,20.294170401436933)" style="fill: rgb(27, 6, 41);" />
        </g>
        <g class="path" style="animation: 1s linear -0.471429s infinite normal forwards running css3toolsmaker;">
          <path
            d="M108.96-11.12L108.96-11.12L108.96-11.12Q118.08-10.40 118.08-2L118.08-2L118.08-2Q118.08 4.56 112.52 8.92L112.52 8.92L112.52 8.92Q106.96 13.28 100 13.28L100 13.28L100 13.28Q91.04 13.28 91.04 5.84L91.04 5.84L92.72 5.92L92.72 5.92Q92.72 8.96 94.84 10.32L94.84 10.32L94.84 10.32Q96.96 11.68 100 11.68L100 11.68L100 11.68Q105.20 11.68 108.04 8.04L108.04 8.04L108.04 8.04Q110.88 4.40 110.88-1.52L110.88-1.52L110.88-1.52Q110.88-5.20 109.72-7.32L109.72-7.32L109.72-7.32Q108.56-9.44 106.64-9.44L106.64-9.44L104.40-9.28L103.92-10.88L103.92-10.88Q106.96-11.92 108.52-12.60L108.52-12.60L108.52-12.60Q110.08-13.28 111.76-14.56L111.76-14.56L111.76-14.56Q114.72-17.04 114.72-22.56L114.72-22.56L114.72-22.56Q114.72-25.44 113.04-26.88L113.04-26.88L113.04-26.88Q111.36-28.32 109.44-28.32L109.44-28.32L109.44-28.32Q109.28-28.32 109.20-28.32L109.20-28.32L109.20-28.32Q107.36-28.32 105.40-26.92L105.40-26.92L105.40-26.92Q103.44-25.52 102.52-24.40L102.52-24.40L102.52-24.40Q101.60-23.28 101.44-22.88L101.44-22.88L100.08-23.60L100.08-23.60Q100.64-24.72 102.04-26.16L102.04-26.16L102.04-26.16Q103.44-27.60 104.96-28.64L104.96-28.64L104.96-28.64Q108.80-31.12 113.36-31.12L113.36-31.12L113.36-31.12Q122-31.12 122-24.48L122-24.48L122-24.48Q122-20.08 118.12-16.68L118.12-16.68L118.12-16.68Q114.24-13.28 108.96-11.12"
            fill="#1b0629" stroke="none" stroke-width="none"
            transform="translate(-250.27996826171875,20.294170401436933)" style="fill: rgb(220, 147, 248);" />
        </g>
        <g class="path" style="animation: 1s linear -0.424286s infinite normal forwards running css3toolsmaker;">
          <path
            d="M143.68-30.40L147.76-30.40L149.92-42.24L149.92-42.24Q155.84-42.24 158.72-42.72L158.72-42.72L159.76-42.96L159.76-42.96Q158.64-37.36 157.28-30.40L157.28-30.40L167.20-30.40L167.04-28.96L157.04-28.96L157.04-28.96Q153.04-8.32 153.04-4.08L153.04-4.08L153.04-4.08Q153.04-1.52 155.76-1.52L155.76-1.52L155.76-1.52Q158.48-1.52 160.72-4.96L160.72-4.96L160.72-4.96Q162.96-8.40 163.92-12.40L163.92-12.40L165.36-11.92L165.36-11.92Q162.40 0.72 153.12 0.72L153.12 0.72L153.12 0.72Q149.28 0.72 146.72-1.40L146.72-1.40L146.72-1.40Q144.16-3.52 144.16-7.32L144.16-7.32L144.16-7.32Q144.16-11.12 147.44-28.96L147.44-28.96L143.52-28.96L143.68-30.40"
            fill="#1b0629" stroke="none" stroke-width="none"
            transform="translate(-250.27996826171875,20.294170401436933)" style="fill: rgb(27, 6, 41);" />
        </g>
        <g class="path" style="animation: 1s linear -0.377143s infinite normal forwards running css3toolsmaker;">
          <path
            d="M181.12 0.72L181.12 0.72Q174.96 0.72 171.76-2.36L171.76-2.36L171.76-2.36Q168.56-5.44 168.56-10.12L168.56-10.12L168.56-10.12Q168.56-14.80 169.40-18.12L169.40-18.12L169.40-18.12Q170.24-21.44 172.16-24.52L172.16-24.52L172.16-24.52Q174.08-27.60 177.96-29.36L177.96-29.36L177.96-29.36Q181.84-31.12 187.64-31.12L187.64-31.12L187.64-31.12Q193.44-31.12 196.68-28.04L196.68-28.04L196.68-28.04Q199.92-24.96 199.92-19.60L199.92-19.60L199.92-19.60Q199.92-10.48 195.08-4.88L195.08-4.88L195.08-4.88Q190.24 0.72 181.12 0.72L181.12 0.72zM177.60-7.52L177.60-7.52L177.60-7.52Q177.60-1.12 181.32-1.12L181.32-1.12L181.32-1.12Q185.04-1.12 187.96-7.56L187.96-7.56L187.96-7.56Q190.88-14 190.88-22.88L190.88-22.88L190.88-22.88Q190.88-29.60 187.24-29.60L187.24-29.60L187.24-29.60Q183.60-29.60 180.60-23.48L180.60-23.48L180.60-23.48Q177.60-17.36 177.60-7.52"
            fill="#1b0629" stroke="none" stroke-width="none"
            transform="translate(-250.27996826171875,20.294170401436933)" style="fill: rgb(220, 147, 248);" />
        </g>
        <g class="path" style="animation: 1s linear -0.33s infinite normal forwards running css3toolsmaker;">
          <path
            d="M216.40 0.72L216.40 0.72Q210.24 0.72 207.04-2.36L207.04-2.36L207.04-2.36Q203.84-5.44 203.84-10.12L203.84-10.12L203.84-10.12Q203.84-14.80 204.68-18.12L204.68-18.12L204.68-18.12Q205.52-21.44 207.44-24.52L207.44-24.52L207.44-24.52Q209.36-27.60 213.24-29.36L213.24-29.36L213.24-29.36Q217.12-31.12 222.92-31.12L222.92-31.12L222.92-31.12Q228.72-31.12 231.96-28.04L231.96-28.04L231.96-28.04Q235.20-24.96 235.20-19.60L235.20-19.60L235.20-19.60Q235.20-10.48 230.36-4.88L230.36-4.88L230.36-4.88Q225.52 0.72 216.40 0.72L216.40 0.72zM212.88-7.52L212.88-7.52L212.88-7.52Q212.88-1.12 216.60-1.12L216.60-1.12L216.60-1.12Q220.32-1.12 223.24-7.56L223.24-7.56L223.24-7.56Q226.16-14 226.16-22.88L226.16-22.88L226.16-22.88Q226.16-29.60 222.52-29.60L222.52-29.60L222.52-29.60Q218.88-29.60 215.88-23.48L215.88-23.48L215.88-23.48Q212.88-17.36 212.88-7.52"
            fill="#1b0629" stroke="none" stroke-width="none"
            transform="translate(-250.27996826171875,20.294170401436933)" style="fill: rgb(27, 6, 41);" />
        </g>
        <g class="path" style="animation: 1s linear -0.282857s infinite normal forwards running css3toolsmaker;">
          <path
            d="M253.76-2.88L253.76-2.88L253.76-2.88Q252.72-1.52 250.92-0.40L250.92-0.40L250.92-0.40Q249.12 0.72 246.24 0.72L246.24 0.72L246.24 0.72Q243.36 0.72 241.36-1.12L241.36-1.12L241.36-1.12Q239.36-2.96 239.36-6.32L239.36-6.32L239.36-6.32Q239.36-6.96 239.52-8.40L239.52-8.40L244.72-37.20L244.72-37.20Q246.16-45.12 248.68-48.48L248.68-48.48L248.68-48.48Q251.20-51.84 255.36-51.84L255.36-51.84L255.36-51.84Q258.24-51.84 260.12-49.68L260.12-49.68L260.12-49.68Q262-47.52 262-43.12L262-43.12L262-43.12Q262-38.72 258.60-30.56L258.60-30.56L258.60-30.56Q255.20-22.40 255.20-18.64L255.20-18.64L253.76-18.64L253.76-18.64Q253.76-22.88 257.12-30.76L257.12-30.76L257.12-30.76Q260.48-38.64 260.48-43.36L260.48-43.36L260.48-43.36Q260.48-46.24 259.16-48.32L259.16-48.32L259.16-48.32Q257.84-50.40 255.92-50.40L255.92-50.40L255.92-50.40Q255.84-48.32 253.16-31.72L253.16-31.72L253.16-31.72Q250.48-15.12 247.84-0.88L247.84-0.88L247.84-0.88Q250.08-0.88 252-3.20L252-3.20L252-3.20Q253.92-5.52 254.72-7.84L254.72-7.84L255.60-10.24L257.04-9.60L257.04-9.60Q256.80-8.48 255.80-6.36L255.80-6.36L255.80-6.36Q254.80-4.24 253.76-2.88"
            fill="#1b0629" stroke="none" stroke-width="none"
            transform="translate(-250.27996826171875,20.294170401436933)" style="fill: rgb(220, 147, 248);" />
        </g>
        <g class="path" style="animation: 1s linear -0.235714s infinite normal forwards running css3toolsmaker;">
          <path
            d="M268.88-1.36L268.88-1.36L268.88-1.36Q276.80-1.36 276.80-13.04L276.80-13.04L276.80-13.04Q276.80-15.92 275.96-19.84L275.96-19.84L275.96-19.84Q275.12-23.76 274.96-24.72L274.96-24.72L274.96-24.72Q270.08-19.68 264-18.64L264-18.64L264-20.56L264-20.56Q269.76-21.84 274.80-27.12L274.80-27.12L274.80-27.44L274.80-27.44Q274.80-29.36 275.36-31.20L275.36-31.20L275.36-31.20Q275.92-33.04 276.48-33.92L276.48-33.92L277.04-34.80L278.96-34.80L278.96-34.80Q278.96-31.28 280.08-28.36L280.08-28.36L280.08-28.36Q281.20-25.44 282.56-23.64L282.56-23.64L282.56-23.64Q283.92-21.84 285.04-18.92L285.04-18.92L285.04-18.92Q286.16-16 286.16-12.48L286.16-12.48L286.16-12.48Q286.16-6.80 281.88-3.04L281.88-3.04L281.88-3.04Q277.60 0.72 271.60 0.72L271.60 0.72L271.60 0.72Q265.60 0.72 262.52-2L262.52-2L262.52-2Q259.44-4.72 259.44-8.28L259.44-8.28L259.44-8.28Q259.44-11.84 261.20-13.40L261.20-13.40L261.20-13.40Q262.96-14.96 265.36-14.96L265.36-14.96L265.36-14.96Q267.76-14.96 269.32-13.40L269.32-13.40L269.32-13.40Q270.88-11.84 270.88-9.40L270.88-9.40L270.88-9.40Q270.88-6.96 269.36-5.28L269.36-5.28L269.36-5.28Q267.84-3.60 265.44-3.60L265.44-3.60L265.44-3.60Q264.40-3.60 263.28-3.92L263.28-3.92L263.28-3.92Q265.04-1.36 268.88-1.36"
            fill="#1b0629" stroke="none" stroke-width="none"
            transform="translate(-250.27996826171875,20.294170401436933)" style="fill: rgb(27, 6, 41);" />
        </g>
        <g class="path" style="animation: 1s linear -0.188571s infinite normal forwards running css3toolsmaker;">
          <path
            d="M338.32-0.88L338.32-0.88L338.32-0.88Q340.24-0.88 342.32-3.12L342.32-3.12L343.52-2.16L343.52-2.16Q342.96-1.04 341.04-0.16L341.04-0.16L341.04-0.16Q339.12 0.72 336.80 0.72L336.80 0.72L336.80 0.72Q329.52 0.72 329.52-5.84L329.52-5.84L329.52-5.84Q329.52-8.64 330.96-15.84L330.96-15.84L330.96-15.84Q332.40-23.04 332.40-25.28L332.40-25.28L332.40-25.28Q332.40-28.72 329.12-28.72L329.12-28.72L329.12-28.72Q324.16-28.72 320.80-16L320.80-16L317.92 0L308.32 0L313.60-29.52L313.60-29.52Q311.20-29.28 309.60-27.28L309.60-27.28L308.40-28.24L308.40-28.24Q310.80-31.12 314.44-31.12L314.44-31.12L314.44-31.12Q318.08-31.12 320.08-29.28L320.08-29.28L320.08-29.28Q322.08-27.44 322.08-24.08L322.08-24.08L322.08-23.84L322.08-23.84Q325.20-31.12 331.52-31.12L331.52-31.12L331.52-31.12Q336-31.12 338.60-28.68L338.60-28.68L338.60-28.68Q341.20-26.24 341.44-21.84L341.44-21.84L341.44-21.84Q342.96-26.24 345.28-28.68L345.28-28.68L345.28-28.68Q347.60-31.12 352-31.12L352-31.12L352-31.12Q356.40-31.12 359.04-28.44L359.04-28.44L359.04-28.44Q361.68-25.76 361.68-21.04L361.68-21.04L361.68-21.04Q361.68-18.56 360.16-11.48L360.16-11.48L360.16-11.48Q358.64-4.40 358.48-0.88L358.48-0.88L358.48-0.88Q360.40-0.88 362.48-3.12L362.48-3.12L363.68-2.16L363.68-2.16Q363.12-1.04 361.20-0.16L361.20-0.16L361.20-0.16Q359.28 0.72 356.96 0.72L356.96 0.72L356.96 0.72Q349.68 0.72 349.68-5.84L349.68-5.84L349.68-5.84Q349.68-8.64 351.12-15.84L351.12-15.84L351.12-15.84Q352.56-23.04 352.56-25.28L352.56-25.28L352.56-25.28Q352.56-28.72 349.28-28.72L349.28-28.72L349.28-28.72Q343.52-28.72 340-11.60L340-11.60L340-11.60Q338.48-4.32 338.32-0.88"
            fill="#1b0629" stroke="none" stroke-width="none"
            transform="translate(-250.27996826171875,20.294170401436933)" style="fill: rgb(220, 147, 248);" />
        </g>
        <g class="path" style="animation: 1s linear -0.141429s infinite normal forwards running css3toolsmaker;">
          <path
            d="M395.68 0.72L395.68 0.72L395.68 0.72Q388.64 0.72 388-5.44L388-5.44L388-5.44Q384.48 0.72 379.12 0.72L379.12 0.72L379.12 0.72Q373.76 0.72 370.60-2.52L370.60-2.52L370.60-2.52Q367.44-5.76 367.44-11.60L367.44-11.60L367.44-11.60Q367.44-20.72 371.92-25.92L371.92-25.92L371.92-25.92Q376.40-31.12 383.52-31.12L383.52-31.12L383.52-31.12Q389.36-31.12 391.28-25.60L391.28-25.60L391.28-25.60Q391.68-28 392.16-30.40L392.16-30.40L392.16-30.40Q398.08-30.40 400.96-30.88L400.96-30.88L402-31.12L396.48-0.88L396.48-0.88Q398.88-1.12 400.48-3.12L400.48-3.12L401.68-2.16L401.68-2.16Q399.28 0.72 395.68 0.72zM376.48-7.52L376.48-7.52Q376.48-3.92 377.40-2.52L377.40-2.52L377.40-2.52Q378.32-1.12 380.24-1.12L380.24-1.12L380.24-1.12Q382.16-1.12 384.16-3.20L384.16-3.20L384.16-3.20Q386.80-5.92 388.40-10.08L388.40-10.08L388.40-10.08Q388.64-11.12 389.32-15.08L389.32-15.08L389.32-15.08Q390-19.04 390.48-21.60L390.48-21.60L390.48-21.60Q390.24-24.64 388.80-26.88L388.80-26.88L388.80-26.88Q387.36-29.12 385.20-29.12L385.20-29.12L385.20-29.12Q381.28-29.12 378.88-22.12L378.88-22.12L378.88-22.12Q376.48-15.12 376.48-7.52L376.48-7.52"
            fill="#1b0629" stroke="none" stroke-width="none"
            transform="translate(-250.27996826171875,20.294170401436933)" style="fill: rgb(27, 6, 41);" />
        </g>
        <g class="path" style="animation: 1s linear -0.0942857s infinite normal forwards running css3toolsmaker;">
          <path
            d="M417.68-15.44L417.68-15.44L414.80 0L405.28 0L414.32-50.24L414.32-50.24Q411.92-50 410.32-48L410.32-48L409.12-48.96L409.12-48.96Q411.52-51.84 415.16-51.84L415.16-51.84L415.16-51.84Q418.80-51.84 420.80-50L420.80-50L420.80-50Q422.80-48.16 422.80-44.80L422.80-44.80L422.80-44.80Q422.80-44.16 422.64-42.72L422.64-42.72L422.64-42.72Q420.80-32.56 418.64-20.80L418.64-20.80L418.64-20.80Q420.64-25.68 424.40-28.40L424.40-28.40L424.40-28.40Q428.16-31.12 432.40-31.12L432.40-31.12L432.40-31.12Q436.64-31.12 438.36-29.44L438.36-29.44L438.36-29.44Q440.08-27.76 440.08-25.24L440.08-25.24L440.08-25.24Q440.08-22.72 438.56-21.12L438.56-21.12L438.56-21.12Q437.04-19.52 434.60-19.52L434.60-19.52L434.60-19.52Q432.16-19.52 430.84-20.92L430.84-20.92L430.84-20.92Q429.52-22.32 429.52-25.08L429.52-25.08L429.52-25.08Q429.52-27.84 431.44-29.28L431.44-29.28L431.44-29.28Q423.76-28.40 419.20-17.92L419.20-17.92L419.20-17.92Q420.32-18.08 421.12-18.08L421.12-18.08L421.12-18.08Q425.36-18.08 427.80-16.40L427.80-16.40L427.80-16.40Q430.24-14.72 430.96-12.28L430.96-12.28L430.96-12.28Q431.68-9.84 432.00-7.40L432.00-7.40L432.00-7.40Q432.32-4.96 433.04-3.28L433.04-3.28L433.04-3.28Q433.76-1.60 435.60-1.60L435.60-1.60L435.60-1.60Q437.44-1.60 438.48-3.12L438.48-3.12L439.68-2.16L439.68-2.16Q439.12-1.04 437.20-0.16L437.20-0.16L437.20-0.16Q435.28 0.72 432.28 0.72L432.28 0.72L432.28 0.72Q429.28 0.72 427.00-0.80L427.00-0.80L427.00-0.80Q424.72-2.32 423.84-4.60L423.84-4.60L423.84-4.60Q422.96-6.88 422.40-9.12L422.40-9.12L422.40-9.12Q420.88-14.88 417.68-15.44"
            fill="#1b0629" stroke="none" stroke-width="none"
            transform="translate(-250.27996826171875,20.294170401436933)" style="fill: rgb(220, 147, 248);" />
        </g>
        <g class="path" style="animation: 1s linear -0.0471429s infinite normal forwards running css3toolsmaker;">
          <path
            d="M461.04-31.12L461.04-31.12L461.04-31.12Q471.20-31.12 471.20-23.04L471.20-23.04L471.20-23.04Q471.20-18 466.44-15.40L466.44-15.40L466.44-15.40Q461.68-12.80 452.88-12.72L452.88-12.72L452.88-12.72Q452.72-9.84 452.72-8.16L452.72-8.16L452.72-8.16Q452.72-4.56 454.36-2.84L454.36-2.84L454.36-2.84Q456.00-1.12 458.48-1.12L458.48-1.12L458.48-1.12Q460.96-1.12 463.00-2.08L463.00-2.08L463.00-2.08Q465.04-3.04 466.24-4.36L466.24-4.36L466.24-4.36Q467.44-5.68 468.32-7.12L468.32-7.12L468.32-7.12Q469.92-9.76 469.92-10.48L469.92-10.48L471.36-9.84L471.36-9.84Q471.12-8.56 469.92-6.44L469.92-6.44L469.92-6.44Q468.72-4.32 467.28-2.96L467.28-2.96L467.28-2.96Q465.84-1.60 463.04-0.44L463.04-0.44L463.04-0.44Q460.24 0.72 456.80 0.72L456.80 0.72L456.80 0.72Q450.32 0.72 447.00-2.36L447.00-2.36L447.00-2.36Q443.68-5.44 443.68-10.80L443.68-10.80L443.68-10.80Q443.68-20.32 448.40-25.72L448.40-25.72L448.40-25.72Q453.12-31.12 461.04-31.12zM469.20-23.04L469.20-23.04Q469.20-25.68 467.64-27.40L467.64-27.40L467.64-27.40Q466.08-29.12 463.00-29.12L463.00-29.12L463.00-29.12Q459.92-29.12 457.00-25.44L457.00-25.44L457.00-25.44Q454.08-21.76 453.12-14.56L453.12-14.56L453.12-14.56Q469.20-14.64 469.20-23.04L469.20-23.04"
            fill="#1b0629" stroke="none" stroke-width="none"
            transform="translate(-250.27996826171875,20.294170401436933)" style="fill: rgb(27, 6, 41);" />
        </g>
        <g class="path" style="animation: 1s linear 0s infinite normal forwards running css3toolsmaker;">
          <path
            d="M477.20-27.28L476.00-28.24L476.00-28.24Q478.40-31.12 482.04-31.12L482.04-31.12L482.04-31.12Q485.68-31.12 487.68-29.28L487.68-29.28L487.68-29.28Q489.68-27.44 489.68-24.08L489.68-24.08L489.68-23.60L489.68-23.60Q493.28-31.12 499.04-31.12L499.04-31.12L499.04-31.12Q505.20-31.12 505.20-24.72L505.20-24.72L505.20-24.72Q505.20-22.08 503.44-19.12L503.44-19.12L503.44-19.12Q501.68-16.16 499.92-13.48L499.92-13.48L499.92-13.48Q498.16-10.80 498.16-8.72L498.16-8.72L496.24-8.72L496.24-8.72Q496.24-11.68 499.68-16.72L499.68-16.72L499.68-16.72Q503.12-21.76 503.12-24.52L503.12-24.52L503.12-24.52Q503.12-27.28 502.04-28.28L502.04-28.28L502.04-28.28Q500.96-29.28 498.84-29.28L498.84-29.28L498.84-29.28Q496.72-29.28 494.68-27.44L494.68-27.44L494.68-27.44Q492.64-25.60 491.28-22.80L491.28-22.80L491.28-22.80Q489.12-18.64 488.40-16L488.40-16L488.40-15.92L485.52 0L475.92 0L481.20-29.52L481.20-29.52Q478.80-29.28 477.20-27.28L477.20-27.28"
            fill="#1b0629" stroke="none" stroke-width="none"
            transform="translate(-250.27996826171875,20.294170401436933)" style="fill: rgb(220, 147, 248);" />
        </g>
      </g>
    </g>
  </g>
</svg>